<svg width="32" height="30" viewBox="0 0 32 30" fill="none" xmlns="http://www.w3.org/2000/svg">
<g clip-path="url(#clip0_1_4)">
<path d="M26.6667 21.875C27.1803 21.8752 27.6741 22.0607 28.0458 22.393C28.4176 22.7253 28.6387 23.1789 28.6634 23.6599C28.688 24.1409 28.5144 24.6123 28.1784 24.9765C27.8425 25.3407 27.3699 25.5698 26.8587 25.6162L26.6667 25.625H5.33333C4.81971 25.6248 4.32587 25.4393 3.95415 25.107C3.58242 24.7747 3.36131 24.3211 3.33663 23.8401C3.31195 23.3591 3.48558 22.8877 3.82156 22.5235C4.15754 22.1593 4.6301 21.9302 5.14133 21.8838L5.33333 21.875H26.6667ZM26.6667 13.125C27.1971 13.125 27.7058 13.3225 28.0809 13.6742C28.4559 14.0258 28.6667 14.5027 28.6667 15C28.6667 15.4973 28.4559 15.9742 28.0809 16.3258C27.7058 16.6775 27.1971 16.875 26.6667 16.875H5.33333C4.8029 16.875 4.29419 16.6775 3.91911 16.3258C3.54404 15.9742 3.33333 15.4973 3.33333 15C3.33333 14.5027 3.54404 14.0258 3.91911 13.6742C4.29419 13.3225 4.8029 13.125 5.33333 13.125H26.6667ZM26.6667 4.375C27.1971 4.375 27.7058 4.57254 28.0809 4.92417C28.4559 5.27581 28.6667 5.75272 28.6667 6.25C28.6667 6.74728 28.4559 7.22419 28.0809 7.57583C27.7058 7.92746 27.1971 8.125 26.6667 8.125H5.33333C4.8029 8.125 4.29419 7.92746 3.91911 7.57583C3.54404 7.22419 3.33333 6.74728 3.33333 6.25C3.33333 5.75272 3.54404 5.27581 3.91911 4.92417C4.29419 4.57254 4.8029 4.375 5.33333 4.375H26.6667Z" fill="white"/>
</g>
<defs>
<clipPath id="clip0_1_4">
<rect width="32" height="30" fill="white"/>
</clipPath>
</defs>
</svg>
